<svg class="svgicon" id="svg18" preserveAspectRatio="xMidYMid meet" xmlns="http://www.w3.org/2000/svg" viewBox="0 0 128 128"><style> #svg18 path, #svg18 circle, #svg18 polygon, #svg18 rect { fill: rgb(37, 182, 231) } #svg18 defs &gt; path { fill: none }  #svg18 path[fill="none"], #svg18 circle[fill="none"], #svg18 polygon[fill="none"], #svg18 rect[fill="none"] { fill: none } </style><style type="text/css"> #svg18 .st0{fill:#020000;} #svg18 .st1{fill:#050000;} #svg18 .st2{fill:#070000;} </style><path d="M63.999,6.842c-31.566,0-57.157,25.589-57.157,57.159c0,31.566,25.591,57.157,57.157,57.157 c31.568,0,57.159-25.591,57.159-57.157C121.158,32.431,95.567,6.842,63.999,6.842z M63.999,111.684 c-26.333,0-47.681-21.35-47.681-47.684c0-26.335,21.348-47.683,47.681-47.683c26.334,0,47.683,21.347,47.683,47.683 C111.682,90.334,90.333,111.684,63.999,111.684z"></path><path d="M46.633,56.875c5.945,0,10.781-4.837,10.781-10.781c0-5.946-4.836-10.782-10.781-10.782 c-5.945,0-10.782,4.836-10.782,10.782C35.852,52.038,40.688,56.875,46.633,56.875z"></path><path d="M80.57,56.875c5.945,0,10.782-4.837,10.782-10.781c0-5.946-4.837-10.782-10.782-10.782 c-5.945,0-10.782,4.836-10.782,10.782C69.789,52.038,74.625,56.875,80.57,56.875z"></path><path d="M91.145,78.988c-1.031,0-2.023,0.432-2.793,1.216c-6.528,6.644-15.172,10.302-24.34,10.302 c-9.278,0.001-18-3.73-24.558-10.509c-0.77-0.796-1.765-1.234-2.802-1.234c-1.62,0-3.153,1.051-3.816,2.613 c-0.638,1.508-0.327,3.122,0.833,4.321C41.721,94.02,52.493,98.603,64,98.604h0.001c11.386,0,22.082-4.504,30.116-12.681 c1.169-1.189,1.491-2.801,0.859-4.306C94.317,80.044,92.778,78.988,91.145,78.988z"></path></svg>