<svg class="svgicon" id="svg17" preserveAspectRatio="xMidYMid meet" xmlns="http://www.w3.org/2000/svg" viewBox="0 0 128 128"><style> #svg17 path, #svg17 circle, #svg17 polygon, #svg17 rect { fill: rgb(37, 182, 231) } #svg17 defs &gt; path { fill: none }  #svg17 path[fill="none"], #svg17 circle[fill="none"], #svg17 polygon[fill="none"], #svg17 rect[fill="none"] { fill: none } </style><style type="text/css"> #svg17 .st0{fill:rgb(37, 182, 231);} </style><path class="st0" d="M102.93,89.247V74c0-7.168-5.832-13-13-13H67.11V38.752c7.309-1.407,12.85-7.843,12.85-15.555 c0-8.739-7.11-15.85-15.85-15.85c-8.738,0-15.848,7.11-15.848,15.85c0,7.712,5.54,14.147,12.848,15.555V61H38.069 c-7.169,0-13,5.832-13,13v15.247c-7.308,1.407-12.848,7.843-12.848,15.556c0,8.738,7.109,15.848,15.848,15.848 c8.739,0,15.85-7.109,15.85-15.848c0-7.713-5.541-14.149-12.85-15.557V74c0-3.859,3.14-7,7-7H61.11v22.247 c-7.308,1.407-12.848,7.843-12.848,15.556c0,8.738,7.109,15.848,15.848,15.848c8.739,0,15.85-7.109,15.85-15.848 c0-7.713-5.541-14.149-12.85-15.557V67h22.82c3.859,0,7,3.141,7,7v15.246c-7.309,1.407-12.85,7.844-12.85,15.557 c0,8.738,7.11,15.848,15.85,15.848s15.849-7.109,15.849-15.848C115.779,97.09,110.239,90.655,102.93,89.247z"></path></svg>