<svg class="svgicon" id="svg27" preserveAspectRatio="xMidYMid meet" xmlns="http://www.w3.org/2000/svg" viewBox="0 0 128 128"><style> #svg27 path, #svg27 circle, #svg27 polygon, #svg27 rect { fill: rgb(37, 182, 231) } #svg27 defs &gt; path { fill: none }  #svg27 path[fill="none"], #svg27 circle[fill="none"], #svg27 polygon[fill="none"], #svg27 rect[fill="none"] { fill: none } </style><style type="text/css"> #svg27 .st0{fill:rgb(37, 182, 231);} </style><path class="st0" d="M83.08,55.408c-5.939,3.866-11.879,7.733-17.818,11.6c-0.023,0.015-0.045,0.021-0.068,0.035 c-0.133,0.088-0.273,0.161-0.422,0.219c-0.008,0.003-0.014,0.007-0.021,0.01c-0.113,0.043-0.23,0.071-0.352,0.094 c-0.061,0.013-0.119,0.03-0.178,0.037c-0.008,0.001-0.014,0-0.02,0.001c-0.535,0.062-1.029-0.096-1.443-0.386 c-0.008-0.004-0.014-0.006-0.02-0.01c-5.875-3.745-11.752-7.49-17.627-11.234c-9.143,14.371-18.285,28.743-27.428,43.115 c0.23,0.018,0.461,0.035,0.695,0.035h91.24c0.416,0,0.824-0.038,1.225-0.093C101.59,84.356,92.334,69.883,83.08,55.408z"></path><path class="st0" d="M87.268,52.683c9.398,14.696,18.793,29.392,28.191,44.088c1.951-1.658,3.195-4.125,3.195-6.88V38.11 c0-1.81-0.541-3.494-1.461-4.909C107.219,39.695,97.242,46.188,87.268,52.683z"></path><path class="st0" d="M40.898,53.088C30.764,46.629,20.631,40.17,10.496,33.71c-0.73,1.304-1.15,2.803-1.15,4.4v51.78 c0,2.928,1.406,5.527,3.572,7.179C22.244,82.409,31.57,67.748,40.898,53.088z"></path><path class="st0" d="M63.986,61.879c16.41-10.684,32.822-21.367,49.232-32.05c-1.104-0.481-2.32-0.753-3.6-0.753h-91.24 c-1.521,0-2.953,0.382-4.213,1.049C30.773,40.709,47.379,51.294,63.986,61.879z"></path></svg>