<svg class="svgicon" id="svg9" preserveAspectRatio="xMidYMid meet" xmlns="http://www.w3.org/2000/svg" viewBox="0 0 128 128"><style> #svg9 path, #svg9 circle, #svg9 polygon, #svg9 rect { fill: rgb(37, 182, 231) } #svg9 defs &gt; path { fill: none }  #svg9 path[fill="none"], #svg9 circle[fill="none"], #svg9 polygon[fill="none"], #svg9 rect[fill="none"] { fill: none } </style><style type="text/css"> #svg9 .st0{fill:rgb(37, 182, 231);} </style><path class="st0" d="M28.044,80.309h-13.78c-1.05,0-1.9,0.851-1.9,1.9v25.583c0,1.049,0.851,1.899,1.9,1.899h13.78 c1.049,0,1.9-0.851,1.9-1.899V82.209C29.945,81.159,29.093,80.309,28.044,80.309z"></path><path class="st0" d="M49.238,65.4h-13.78c-1.05,0-1.9,0.851-1.9,1.899v40.492c0,1.049,0.851,1.899,1.9,1.899h13.78 c1.049,0,1.899-0.851,1.899-1.899V67.3C51.137,66.251,50.287,65.4,49.238,65.4z"></path><path class="st0" d="M70.735,49.391H56.956c-1.05,0-1.9,0.852-1.9,1.9v56.501c0,1.049,0.851,1.899,1.9,1.899h13.779 c1.049,0,1.9-0.851,1.9-1.899V51.291C72.635,50.242,71.784,49.391,70.735,49.391z"></path><path class="st0" d="M92.542,34.702H78.761c-1.049,0-1.899,0.851-1.899,1.9v71.189c0,1.049,0.851,1.899,1.899,1.899h13.781 c1.049,0,1.899-0.851,1.899-1.899V36.603C94.442,35.553,93.591,34.702,92.542,34.702z"></path><path class="st0" d="M113.736,18.309H99.953c-1.049,0-1.899,0.851-1.899,1.899v87.584c0,1.049,0.851,1.899,1.899,1.899h13.783 c1.049,0,1.899-0.851,1.899-1.899V20.208C115.635,19.159,114.785,18.309,113.736,18.309z"></path></svg>