<svg class="svgicon" id="svg44" preserveAspectRatio="xMidYMid meet" xmlns="http://www.w3.org/2000/svg" viewBox="0 0 128 128"><style> #svg44 path, #svg44 circle, #svg44 polygon, #svg44 rect { fill: rgb(37, 182, 231) } #svg44 defs &gt; path { fill: none }  #svg44 path[fill="none"], #svg44 circle[fill="none"], #svg44 polygon[fill="none"], #svg44 rect[fill="none"] { fill: none } </style><style type="text/css"> #svg44 .st0{fill:rgb(37, 182, 231);} </style><path class="st0" d="M77.629,61.229h6.258c-1.221-8.789-8.131-15.76-16.888-17.08v6.455c0,1.656-1.343,3-3,3s-3-1.344-3-3v-6.455 c-8.757,1.32-15.666,8.291-16.887,17.08h6.258c1.657,0,3,1.342,3,3c0,1.656-1.343,3-3,3h-6.188 c1.394,8.572,8.212,15.326,16.816,16.623v-5.99c0-1.656,1.343-3,3-3s3,1.344,3,3v5.99c8.604-1.297,15.425-8.051,16.817-16.623 h-6.188c-1.657,0-3-1.344-3-3C74.629,62.57,75.972,61.229,77.629,61.229z"></path><path class="st0" d="M64,15.65C37.34,15.65,15.65,37.34,15.65,64S37.34,112.35,64,112.35c26.659,0,48.349-21.689,48.349-48.35 S90.659,15.65,64,15.65z M66.999,89.922v7.344c0,1.656-1.343,3-3,3s-3-1.344-3-3v-7.344C49.078,88.551,39.58,79.119,38.105,67.229 h-7.143c-1.657,0-3-1.344-3-3c0-1.658,1.343-3,3-3h7.084c1.284-12.105,10.878-21.762,22.952-23.15v-6.885c0-1.656,1.343-3,3-3 s3,1.344,3,3v6.885c12.075,1.389,21.669,11.045,22.953,23.15h7.083c1.657,0,3,1.342,3,3c0,1.656-1.343,3-3,3h-7.142 C88.419,79.119,78.922,88.551,66.999,89.922z"></path></svg>